<?xml version="1.0" encoding="utf-8"?>
<svg xmlns="http://www.w3.org/2000/svg" viewBox="-56.744 -46.188 1918.473 1078.522" xmlns:bx="https://boxy-svg.com" style="shape-rendering: crispedges;" width="1918.473px" height="1078.522px"><defs><bx:export><bx:file format="svg" href="#object-1" path="Logo.svg" excluded="true"/><bx:file format="svg"/></bx:export></defs><g transform="matrix(1, 0, 0, 1, -57.5075, -46.927002)" style="pointer-events: none;"><title>Fractal Background</title><path d="M 1003 496 L 810 476 L 877 697 Z" style="fill: rgb(176,218,190);"/><path d="M 810 476 L 713 566 L 877 697 Z" style="fill: rgb(173,217,189);"/><path d="M 877 697 L 1002 782 L 1003 496 Z" style="fill: rgb(193,227,191);"/><path d="M 1242 585 L 1042 295 L 1003 496 Z" style="fill: rgb(178,220,189);"/><path d="M 1003 496 L 898 248 L 810 476 Z" style="fill: rgb(159,211,187);"/><path d="M 1042 295 L 898 248 L 1003 496 Z" style="fill: rgb(157,210,187);"/><path d="M 810 476 L 573 336 L 713 566 Z" style="fill: rgb(152,208,186);"/><path d="M 422 571 L 592 695 L 713 566 Z" style="fill: rgb(162,213,186);"/><path d="M 713 566 L 592 695 L 877 697 Z" style="fill: rgb(177,220,188);"/><path d="M 877 697 L 795 983 L 1002 782 Z" style="fill: rgb(208,234,187);"/><path d="M 1002 782 L 1242 585 L 1003 496 Z" style="fill: rgb(197,229,191);"/><path d="M 1002 782 L 1235 774 L 1242 585 Z" style="fill: rgb(213,238,190);"/><path d="M 898 248 L 573 336 L 810 476 Z" style="fill: rgb(143,205,184);"/><path d="M 1042 295 L 901 165 L 898 248 Z" style="fill: rgb(142,201,184);"/><path d="M 898 248 L 705 119 L 573 336 Z" style="fill: rgb(126,195,181);"/><path d="M 795 983 L 1113 934 L 1002 782 Z" style="fill: rgb(218,230,167);"/><path d="M 1002 782 L 1113 934 L 1235 774 Z" style="fill: rgb(223,241,185);"/><path d="M 592 695 L 795 983 L 877 697 Z" style="fill: rgb(196,230,188);"/><path d="M 592 695 L 703 1000 L 795 983 Z" style="fill: rgb(201,223,166);"/><path d="M 795 983 L 831.2925170068028 1080 L 917.0918367346939 1080 L 1113 934 Z" style="fill: rgb(220,220,137);"/><path d="M 573 336 L 422 571 L 713 566 Z" style="fill: rgb(147,206,185);"/><path d="M 592 695 L 339 968 L 703 1000 Z" style="fill: rgb(192,220,166);"/><path d="M 901 165 L 705 119 L 898 248 Z" style="fill: rgb(128,190,180);"/><path d="M 573 336 L 385 249 L 422 571 Z" style="fill: rgb(126,197,181);"/><path d="M 422 571 L 403 698 L 592 695 Z" style="fill: rgb(161,213,185);"/><path d="M 1555 590 L 1337 263 L 1242 585 Z" style="fill: rgb(200,232,189);"/><path d="M 1242 585 L 1337 263 L 1042 295 Z" style="fill: rgb(177,220,187);"/><path d="M 1042 295 L 1115 53 L 901 165 Z" style="fill: rgb(140,195,182);"/><path d="M 901 165 L 886.8395522388059 0 L 797.7342342342342 0 L 705 119 Z" style="fill: rgb(114,174,176);"/><path d="M 1295 134 L 1115 53 L 1042 295 Z" style="fill: rgb(149,198,181);"/><path d="M 703 1000 L 793.4615384615385 1080 L 831.2925170068028 1080 L 795 983 Z" style="fill: rgb(213,215,130);"/><path d="M 1113 934 L 1304 969 L 1235 774 Z" style="fill: rgb(233,240,168);"/><path d="M 1235 774 L 1473 764 L 1242 585 Z" style="fill: rgb(223,243,190);"/><path d="M 1081.4892086330935 1080 L 1189.3456790123457 1080 L 1304 969 L 1113 934 Z" style="fill: rgb(235,227,130);"/><path d="M 1337 263 L 1295 134 L 1042 295 Z" style="fill: rgb(162,210,183);"/><path d="M 448 131 L 385 249 L 573 336 Z" style="fill: rgb(108,188,178);"/><path d="M 422 571 L 251 574 L 403 698 Z" style="fill: rgb(149,201,183);"/><path d="M 1304 969 L 1473 764 L 1235 774 Z" style="fill: rgb(238,249,183);"/><path d="M 589.8387096774194 0 L 531.934131736527 0 L 448 131 L 705 119 Z" style="fill: rgb(96,169,173);"/><path d="M 705 119 L 448 131 L 573 336 Z" style="fill: rgb(111,185,178);"/><path d="M 385 249 L 251 574 L 422 571 Z" style="fill: rgb(130,193,181);"/><path d="M 339 968 L 503.4393063583815 1080 L 640.5886524822695 1080 L 703 1000 Z" style="fill: rgb(200,209,128);"/><path d="M 339 968 L 592 695 L 403 698 Z" style="fill: rgb(176,219,184);"/><path d="M 793.4615384615385 1080 L 703 1000 L 640.5886524822695 1080 Z" style="fill: rgb(211,210,118);"/><path d="M 1473 764 L 1555 590 L 1242 585 Z" style="fill: rgb(223,243,190);"/><path d="M 1337 263 L 1520 244 L 1295 134 Z" style="fill: rgb(172,214,183);"/><path d="M 917.0918367346939 1080 L 1081.4892086330935 1080 L 1113 934 Z" style="fill: rgb(227,218,120);"/><path d="M 1107.1761904761904 0 L 1034.4807692307693 0 L 1115 53 Z" style="fill: rgb(122,172,176);"/><path d="M 1115 53 L 1034.4807692307693 0 L 886.8395522388059 0 L 901 165 Z" style="fill: rgb(122,175,177);"/><path d="M 176 796 L 339 968 L 403 698 Z" style="fill: rgb(172,209,179);"/><path d="M 1421.5236051502145 0 L 1243.8363636363636 0 L 1295 134 Z" style="fill: rgb(147,183,176);"/><path d="M 1295 134 L 1243.8363636363636 0 L 1188.8214285714287 0 L 1115 53 Z" style="fill: rgb(142,185,178);"/><path d="M 797.7342342342342 0 L 589.8387096774194 0 L 705 119 Z" style="fill: rgb(99,163,173);"/><path d="M 1555 590 L 1520 244 L 1337 263 Z" style="fill: rgb(193,227,182);"/><path d="M 1304 969 L 1549 931 L 1473 764 Z" style="fill: rgb(247,249,168);"/><path d="M 1666 778 L 1681 575 L 1555 590 Z" style="fill: rgb(230,236,162);"/><path d="M 1482.5087719298244 1080 L 1570.3875598086124 1080 L 1549 931 L 1304 969 Z" style="fill: rgb(252,238,129);"/><path d="M 1188.8214285714287 0 L 1107.1761904761904 0 L 1115 53 Z" style="fill: rgb(131,176,176);"/><path d="M 251 574 L 176 796 L 403 698 Z" style="fill: rgb(154,200,181);"/><path d="M 1189.3456790123457 1080 L 1325.3640167364017 1080 L 1304 969 Z" style="fill: rgb(241,227,118);"/><path d="M 531.934131736527 0 L 433.9378531073446 0 L 448 131 Z" style="fill: rgb(82,159,170);"/><path d="M 203 72 L 167 308 L 385 249 Z" style="fill: rgb(90,168,173);"/><path d="M 385 249 L 167 308 L 251 574 Z" style="fill: rgb(113,182,177);"/><path d="M 251 574 L 27 688 L 176 796 Z" style="fill: rgb(146,190,179);"/><path d="M 1762 326 L 1565 176 L 1520 244 Z" style="fill: rgb(187,213,159);"/><path d="M 1520 244 L 1565 176 L 1295 134 Z" style="fill: rgb(174,211,179);"/><path d="M 1681 575 L 1520 244 L 1555 590 Z" style="fill: rgb(209,227,168);"/><path d="M 203 72 L 385 249 L 448 131 Z" style="fill: rgb(89,167,172);"/><path d="M 503.4393063583815 1080 L 339 968 L 389.56540084388183 1080 Z" style="fill: rgb(197,202,115);"/><path d="M 248.2490118577075 1080 L 389.56540084388183 1080 L 339 968 Z" style="fill: rgb(188,190,114);"/><path d="M 1666 778 L 1555 590 L 1473 764 Z" style="fill: rgb(235,243,171);"/><path d="M 1685 998 L 1666 778 L 1549 931 Z" style="fill: rgb(252,240,136);"/><path d="M 1549 931 L 1666 778 L 1473 764 Z" style="fill: rgb(247,249,167);"/><path d="M 433.9378531073446 0 L 340.89830508474574 0 L 203 72 L 448 131 Z" style="fill: rgb(78,155,169);"/><path d="M 0 926.0869565217391 L 0 975.4639175257732 L 140 1000 L 176 796 Z" style="fill: rgb(168,185,150);"/><path d="M 176 796 L 140 1000 L 339 968 Z" style="fill: rgb(175,195,152);"/><path d="M 0 507.71478873239437 L 0 602.95 L 27 688 L 251 574 Z" style="fill: rgb(129,179,178);"/><path d="M 0 467.485 L 0 507.71478873239437 L 251 574 L 167 308 Z" style="fill: rgb(115,175,177);"/><path d="M 340.89830508474574 0 L 189.63917525773195 0 L 203 72 Z" style="fill: rgb(63,142,166);"/><path d="M 1325.3640167364017 1080 L 1482.5087719298247 1080 L 1304 969 Z" style="fill: rgb(252,234,117);"/><path d="M 1570.3875598086124 1080 L 1623.7887323943662 1080 L 1685 998 L 1549 931 Z" style="fill: rgb(254,232,107);"/><path d="M 1919 582 L 1762 326 L 1681 575 Z" style="fill: rgb(217,220,139);"/><path d="M 1681 575 L 1762 326 L 1520 244 Z" style="fill: rgb(202,220,156);"/><path d="M 1851 828 L 1681 575 L 1666 778 Z" style="fill: rgb(241,237,146);"/><path d="M 1718 165 L 1591.125 0 L 1533 0 L 1565 176 Z" style="fill: rgb(169,191,156);"/><path d="M 1565 176 L 1533 0 L 1421.5236051502145 0 L 1295 134 Z" style="fill: rgb(162,195,176);"/><path d="M 1762 326 L 1718 165 L 1565 176 Z" style="fill: rgb(187,207,149);"/><path d="M 0 319.1866028708134 L 0 467.485 L 167 308 Z" style="fill: rgb(98,164,173);"/><path d="M 203 72 L 21 163 L 167 308 Z" style="fill: rgb(78,155,169);"/><path d="M 113.9 0 L 10.609561752988048 0 L 21 163 L 203 72 Z" style="fill: rgb(54,134,163);"/><path d="M 21 163 L 0 216 L 0 319.1866028708134 L 167 308 Z" style="fill: rgb(82,160,171);"/><path d="M 1623.7887323943662 1080 L 1668.7511520737328 1080 L 1685 998 Z" style="fill: rgb(255,227,84);"/><path d="M 1883 1025 L 1851 828 L 1685 998 Z" style="fill: rgb(254,229,94);"/><path d="M 1685 998 L 1851 828 L 1666 778 Z" style="fill: rgb(252,238,130);"/><path d="M 0 780.6666666666666 L 0 926.0869565217391 L 176 796 L 27 688 Z" style="fill: rgb(157,190,175);"/><path d="M 49.59999999999998 1080 L 137.82805429864254 1080 L 140 1000 Z" style="fill: rgb(175,172,111);"/><path d="M 140 1000 L 137.82805429864254 1080 L 248.2490118577075 1080 L 339 968 Z" style="fill: rgb(182,184,117);"/><path d="M 1851 828 L 1919 582 L 1681 575 Z" style="fill: rgb(236,229,134);"/><path d="M 1762 326 L 1899 268 L 1718 165 Z" style="fill: rgb(193,207,134);"/><path d="M 0 673.4875 L 27 688 L 0 602.95 Z" style="fill: rgb(123,172,176);"/><path d="M 0 699.3619909502263 L 0 780.6666666666666 L 27 688 Z" style="fill: rgb(153,186,176);"/><path d="M 1919 582 L 1899 268 L 1762 326 Z" style="fill: rgb(209,212,127);"/><path d="M 1591.125 0 L 1718 165 L 1728.9634551495017 0 Z" style="fill: rgb(164,178,146);"/><path d="M 1668.7511520737328 1080 L 1813.2368421052631 1080 L 1883 1025 L 1685 998 Z" style="fill: rgb(255,222,65);"/><path d="M 1851 828 L 1920 754.2522935779816 L 1920 582.0866666666667 L 1919 582 Z" style="fill: rgb(238,225,119);"/><path d="M 1887.2091836734694 1080 L 1883 1025 L 1813.2368421052631 1080 Z" style="fill: rgb(255,220,48);"/><path d="M 1871 61 L 1829.8172588832488 0 L 1728.9634551495017 0 L 1718 165 Z" style="fill: rgb(171,177,131);"/><path d="M 1899 268 L 1871 61 L 1718 165 Z" style="fill: rgb(185,193,126);"/><path d="M 189.63917525773195 0 L 113.9 0 L 203 72 Z" style="fill: rgb(50,132,163);"/><path d="M 0 673.4875 L 0 699.3619909502263 L 27 688 Z" style="fill: rgb(136,178,176);"/><path d="M 0 975.4639175257732 L 0 1080 L 49.59999999999998 1080 L 140 1000 Z" style="fill: rgb(170,169,116);"/><path d="M 1920 812.1134020618557 L 1920 754.2522935779816 L 1851 828 Z" style="fill: rgb(245,229,118);"/><path d="M 1919 582 L 1920 581.0812182741116 L 1920 280.8709677419355 L 1899 268 Z" style="fill: rgb(212,211,118);"/><path d="M 1899 268 L 1920 252.33333333333334 L 1920 64.325 L 1871 61 Z" style="fill: rgb(185,186,113);"/><path d="M 0 158.8 L 0 216 L 21 163 Z" style="fill: rgb(70,148,167);"/><path d="M 10.609561752988048 0 L 0 0 L 0 158.8 L 21 163 Z" style="fill: rgb(48,130,162);"/><path d="M 1883 1025 L 1920 987.2857142857143 L 1920 812.1134020618557 L 1851 828 Z" style="fill: rgb(254,230,99);"/><path d="M 1888.0441176470588 0 L 1829.8172588832488 0 L 1871 61 Z" style="fill: rgb(170,170,120);"/><path d="M 1920 582.0866666666667 L 1920 581.0812182741117 L 1919 582 Z" style="fill: rgb(223,216,120);"/><path d="M 1920 64.325 L 1920 0 L 1888.0441176470588 0 L 1871 61 Z" style="fill: rgb(172,167,110);"/><path d="M 1920 1024.7672955974842 L 1920 987.2857142857142 L 1883 1025 Z" style="fill: rgb(255,225,79);"/><path d="M 1920 1080 L 1920 1041.1767441860466 L 1883 1025 L 1887.2091836734694 1080 Z" style="fill: rgb(255,215,0);"/><path d="M 1920 280.8709677419355 L 1920 252.33333333333334 L 1899 268 Z" style="fill: rgb(196,201,115);"/><path d="M 1920 1041.1767441860466 L 1920 1024.7672955974842 L 1883 1025 Z" style="fill: rgb(255,217,27);"/></g><g id="object-0" transform="matrix(0.757723, 0, 0, 1.074356, 197.957077, -377.361664)" style=""><title>Text Box</title><path d="M 352.469 454.007 C 353.578 452.98 358.889 451.938 367.405 444.154 M 351.724 455.004 C 356.785 452.295 361.433 449.575 368.388 443.546 M 360.304 463.269 C 363.149 457.696 364.136 450.494 368.883 443.202 M 358.566 461.734 C 363.002 454.021 366.76 448.335 369.056 444.665 M 351.031 469.991 C 363.014 462.113 369.622 452.11 382.156 444.807 M 350.531 470.487 C 357.565 465.878 365.57 459.11 382.751 443.15 M 359.93 477.378 C 365.524 469.501 371.433 460.179 380.254 445.01 M 359.833 478.36 C 365.469 468.439 371.875 459.381 383.011 444.048 M 351.063 487.935 C 368.026 470.633 386.257 452.697 393.911 443.004 M 351.075 485.328 C 361.285 475.816 373.032 466.602 394.561 443.262 M 358.755 493.765 C 371.27 476.336 384.824 458.49 395.327 443.211 M 359.605 491.677 C 372.587 474.201 384.965 458.553 393.947 444.759 M 352.928 503.264 C 371.548 481.307 392.101 461.125 406.596 445.214 M 351.72 501.813 C 367.934 484.73 386.459 466.919 408.838 443.62 M 360.58 507.417 C 377.208 489.286 392.277 465.693 407.466 441.837 M 359.028 507.69 C 377.592 484.633 397.004 459.778 408.665 443.251 M 352.492 517.509 C 366.973 498.775 383.393 484.887 423.046 445.297 M 352.02 515.645 C 379.217 488.522 405.328 459.55 421.198 442.659 M 360.709 523.427 C 377.887 498.21 398.886 472.231 420.943 444.308 M 358.435 523.822 C 377.514 499.057 395.523 476.544 422.561 442.681 M 351.871 532.347 C 369.752 513.617 387.854 490.717 434.97 442.234 M 351.462 531.986 C 380.369 500.37 409.757 470.897 433.815 443.256 M 360.695 539.035 C 388.792 503.421 417.235 465.767 432.904 443.17 M 358.097 538.952 C 381.559 509.683 403.614 483.374 433.593 444.641 M 352.68 547.558 C 374.736 521.792 399.834 492.003 448.919 441.869 M 352.724 547.415 C 377.235 521.465 401.07 494.441 447.4 444.458 M 357.59 553.584 C 389.839 517.864 420.274 477.568 447.34 441.829 M 359.471 553.378 C 379.54 527.112 401.927 500.109 448.251 442.9 M 350.783 563.069 C 381.739 528.721 411.509 499.035 462.354 445.438 M 352.419 561.967 C 375.082 536.847 399.016 511.494 461.252 444.014 M 358.696 570.562 C 396.012 523.776 435.742 475.552 463.147 443.082 M 359.954 568.856 C 383.781 539.064 408.707 508.196 461.616 443.925 M 353.547 576.91 C 387.616 541.99 419.942 504.27 474.265 442.541 M 352.35 577.098 C 376.716 550.704 401.683 522.505 475.894 443.359 M 358.817 583.563 C 387.399 552.871 410.984 518.273 476.753 442.094 M 360.128 584.558 C 382.027 554.558 406.061 525.171 473.992 443.869 M 350.673 591.44 C 394.931 545.054 440.328 498.41 487.847 444.58 M 352.171 593.646 C 383.131 558.347 415.783 522.305 487.749 443.191 M 359.003 598.455 C 403.982 542.844 454.836 484.275 488.693 443.904 M 358.562 599.162 C 403.164 546.861 447.687 494.11 487.6 444.05 M 351.117 606.597 C 404.37 553.093 456.497 492.82 501.191 442.351 M 351.159 608.12 C 404.564 550.506 456.64 492.94 501.7 444.019 M 359.745 614.658 C 402.831 564.189 443.848 511.685 502.57 444.327 M 358.886 614.554 C 395.659 570.942 431.586 528.145 501.142 443.997 M 350.413 622.872 C 405.777 563.14 457.802 504.372 515.12 444.501 M 351.603 624.08 C 393.232 576.767 433.892 530.827 515.382 443.696 M 359.863 628.895 C 414.953 564.902 468.813 498.178 513.37 443.046 M 358.74 630.371 C 393.643 588.875 427.21 548.416 514.09 443.925 M 351.161 638.739 C 402.227 581.702 450.838 526.179 527.709 443.398 M 351.975 638.912 C 402.777 584 453.023 527.223 527.193 444.05 M 358.27 646.02 C 420.258 572.337 480.857 499.098 527.112 443.933 M 359.03 645.486 C 416.097 575.482 474.174 506.403 527.887 444.516 M 350.762 653.499 C 414.99 585.127 474.229 516.352 539.865 443.525 M 352.04 653.518 C 393.668 605.482 437.123 557.522 541.134 443.291 M 358.417 661.555 C 427.284 577.555 498.167 494.422 542.244 442.867 M 358.537 660.535 C 430.871 577.296 501.809 492.568 541.462 442.999 M 352.989 667.548 C 426.304 583.508 504.639 498.123 554.167 442.735 M 351.507 669.134 C 413.2 600.432 475.101 531.256 554.832 443.722 M 360.401 675.63 C 424.72 595.815 493.202 516.168 553.4 442.151 M 359.057 675.069 C 428.44 593.819 496.958 511.862 554.03 443.788 M 350.826 684.771 C 407.412 624.476 462.963 560.272 567.675 442.932 M 350.92 684.278 C 435.468 589.933 521.394 494.187 566.588 443.504 M 359.696 691.92 C 406.389 635.909 452.446 582.447 567.782 444.614 M 358.682 690.392 C 417.305 622.556 474.416 553.88 566.626 444.01 M 352.088 698.387 C 402.255 642.365 451.395 588.046 580.381 444.303 M 352.168 699.236 C 399.947 644.147 448.72 590.372 581.215 443.262 M 358.21 706.136 C 416.314 637.515 473.518 570.898 580.503 443.223 M 359.928 706.44 C 413.392 641.231 469.409 576.054 581.006 443.424 M 351.254 713.878 C 440.811 615.198 528.546 516.644 593.639 444.63 M 350.972 714.75 C 424.65 631.859 500.572 547.021 593.709 443.256 M 358.226 720.751 C 438.383 627.001 517.589 532.357 593.937 442.501 M 359.033 721.123 C 407.971 665.197 456.505 608.682 593.436 444.109 M 351.519 728.847 C 426.252 646.253 500.193 564.772 606.559 442.946 M 351.358 730.134 C 425.868 647.16 500.806 563.56 607.387 444.086 M 359.689 735.717 C 412.916 671.554 465.671 607.65 605.647 444.543 M 359.255 736.256 C 436.613 644.214 513.599 553.964 607.077 444.559 M 351.324 744.731 C 457.752 626.72 566.852 505.257 620.752 443.791 M 351.135 745.548 C 408.155 681.919 464.748 619.689 620.299 443.245 M 358.411 752.087 C 436.219 661.078 516.096 567.11 620.524 442.771 M 358.909 751.76 C 459.374 633.062 561.517 513.092 619.856 443.953 M 352.238 760.532 C 462.327 638.658 571.464 517.169 634.125 442.684 M 352.256 760.769 C 449.114 651.295 547.037 541.455 633.752 443.057 M 360.267 766.442 C 425.265 686.654 494.718 606.451 632.699 443.024 M 359.304 767.205 C 441.619 668.742 525.05 571.455 634.034 443.842 M 351.59 776.721 C 466.634 647.044 582.026 518.037 647.981 444.032 M 351.208 775.554 C 424.935 695.96 496.243 614.983 647.57 442.979 M 359.97 783.337 C 466.71 656.047 574.07 528.697 646.507 443.859 M 359.399 782.182 C 463.311 661.786 566.189 541.558 647.196 443.074 M 351.924 791.522 C 415.005 720.319 475.931 649.936 659.388 443.224 M 351.593 790.961 C 436.628 696.737 521.221 601.737 660.288 443.538 M 359.909 796.716 C 435.71 705.001 512.861 616.077 659.461 443.569 M 359.123 797.623 C 450.781 690.773 540.008 585.644 659.875 443.577 M 351.511 806.734 C 442.579 705.548 531.068 605.731 673.488 443.802 M 351.495 806.32 C 434.686 713.292 517.835 620.119 673.709 443.247 M 358.263 813.751 C 459.084 693.282 561.254 573.638 673.574 444.444 M 358.953 812.766 C 460.676 692.371 562.374 572.741 673.668 443.2 M 351.706 821.546 C 461.192 697.51 569.635 574.041 686.431 442.754 M 351.988 821.058 C 440.941 721.02 529.094 621.811 686.984 443.042 M 359.515 828.031 C 445.574 724.931 531.464 624.767 687.459 444.153 M 359.363 827.774 C 446.8 724.629 534.663 621.027 686.755 443.172 M 351.557 836.896 C 458.445 712.957 565.985 590.417 699.997 444.439 M 351.81 836.811 C 489.033 678.776 628.04 521.91 699.5 444.002 M 359.095 843.778 C 433.152 758.548 506.173 671.116 700.276 444.547 M 359.393 843.336 C 432.427 758.235 504.878 672.744 699.281 444.046 M 351.495 851.171 C 442.724 749.205 533.696 645.19 713.388 443.278 M 351.717 851.607 C 431.535 764.48 509.632 675.853 712.81 443.563 M 358.854 857.577 C 493.871 700.605 629.278 541.908 713.397 443.835 M 359.315 858.174 C 460.014 741.138 561.293 623.055 713.514 443.547 M 351.28 867.846 C 436.926 770.698 521.494 675.456 725.795 442.819 M 351.669 867.466 C 469.455 735.636 586.427 603.011 726.741 443.176 M 358.326 874.328 C 439.524 780.31 518.949 685.305 726.589 442.989 M 359.4 874.196 C 451.009 768.489 541.552 661.305 726.795 443.415 M 352.045 881.429 C 494.755 718.88 638.961 557.095 739.959 443.857 M 352.072 881.965 C 479.249 738.154 606.297 595.148 739.746 443.67 M 360.02 888.364 C 448.124 784.229 536.596 680.174 739.966 443.429 M 359.57 888.866 C 479.82 746.283 600.075 605.848 739.088 443.967 M 351.047 897.896 C 458.356 776.445 566.311 654.049 752.936 443.774 M 351.736 897.473 C 491.152 741.835 629.672 584.413 752.47 443.783 M 359.368 903.886 C 513.984 719.517 670.929 537.465 752.762 443.163 M 358.945 904.441 C 497.338 745.585 633.645 586.557 752.551 443.427 M 351.722 912.653 C 506.509 738.15 660.121 564.042 766.568 444.266 M 351.518 912.716 C 471.964 774.193 593.356 636.953 766.214 443.893 M 359.58 919.325 C 495.919 761.531 630.806 603.164 765.792 442.911 M 359.496 919.535 C 454.524 807.493 551.108 694.481 765.998 443.262 M 352.027 927.776 C 511.376 742.851 673.493 561.039 779.844 444.279 M 351.476 928.015 C 498.341 763.476 644.495 596.993 779.307 443.753 M 358.39 934.982 C 492.067 776.825 625.741 619.145 778.62 443.845 M 359.193 935.156 C 498.094 773.623 636.619 611.697 779.27 444.311 M 351.296 942.773 C 459.852 820.027 569.72 696.733 792.473 444.146 M 352.12 943.246 C 489.402 788.995 625.278 634.816 792.268 443.426 M 359.705 950.189 C 485.218 801.978 612.348 652.884 793.129 443.722 M 359.657 949.466 C 452.361 839.283 545.359 730.485 792.798 443.725 M 351.388 959.018 C 532.762 753.624 711.151 549.586 805.744 443.712 M 351.557 959.078 C 465.27 829.83 579.178 700.45 806.275 443.816 M 358.76 964.547 C 471.115 835.398 582.126 704.822 806.386 443.013 M 359.309 965.424 C 503.306 797.566 646.861 630.001 806.073 443.496 M 352.336 973.72 C 486.357 820.942 622.19 667.117 818.754 444.12 M 351.545 973.338 C 478.146 828.232 604.787 684.92 819.386 443.645 M 360.163 979.888 C 469.166 852.879 578.395 725.255 819.661 443.484 M 359.419 979.943 C 506.655 806.181 655.759 631.765 819.466 443.433 M 351.899 989.153 C 475.261 845.948 601.863 703.205 831.892 444.513 M 351.442 989.446 C 503.648 817.424 655.773 644.575 832.428 444.166 M 358.247 995.113 C 526.648 800.409 695.691 603.221 832.318 443.306 M 358.859 995.531 C 518.586 806.48 679.578 618.461 832.115 443.476 M 352.41 1003.425 C 493.564 843.501 637.505 680.531 846.268 443.826 M 351.857 1003.977 C 537.49 793.931 722.887 582.809 846.021 443.743 M 359.921 1011.354 C 539.715 797.981 721.987 585.758 846.042 443.637 M 359.348 1011.051 C 520.454 823.372 681.898 634.755 845.354 443.877 M 350.728 1019.712 C 462.801 894.671 573.486 768.371 859.77 443.704 M 351.798 1019.902 C 495.73 855.166 640.084 691.025 859.042 443.177 M 358.62 1026.812 C 511.149 849.686 662.74 672.203 859.297 443.548 M 359.409 1026.161 C 513.655 847.561 668 667.697 858.772 443.327 M 351.487 1033.821 C 526.924 835.634 704.891 635.158 872.24 444.644 M 351.523 1034.947 C 517.411 847.037 684.024 657.893 872.194 444.249 M 358.751 1041.918 C 472.954 905.777 587.989 772.714 872.499 444.159 M 359.61 1040.873 C 521.61 854.377 683.108 666.621 872.185 443.89 M 352.245 1049.827 C 463.756 924.357 575.817 797.849 885.834 443.726 M 351.291 1050.032 C 461.874 928.364 570.094 805.352 885.172 443.444 M 359.248 1057.373 C 496.533 895.08 633.989 735.536 885.179 443.177 M 358.924 1056.797 C 486.269 904.619 616.013 753.432 885.199 443.942 M 351.936 1064.438 C 475.71 922.461 601.476 778.401 899.494 443.947 M 351.808 1064.833 C 516.314 877.223 679.93 692.182 899.128 443.693 M 358.819 1071.31 C 467.422 943.401 576.202 815.269 898.455 444.225 M 359.17 1071.895 C 487.804 922.102 616.557 772.055 898.88 443.498 M 352.018 1081.029 C 503.855 910.376 655.095 738.117 910.909 443.954 M 351.385 1080.62 C 474.228 944.884 595.489 807.263 911.439 444.097 M 358.699 1086.93 C 519.147 899.048 681.164 710.938 912.19 443.372 M 358.969 1087.325 C 512.276 910.618 664.549 732.883 911.317 444.35 M 352.125 1095.607 C 498.301 931.861 642.252 768.594 924.888 443.779 M 351.979 1095.819 C 468.905 958.694 588.401 823.803 924.876 444.069 M 359.895 1101.663 C 488.864 954.355 617.643 804.301 925.367 444.476 M 358.993 1102.2 C 571.883 852.267 785.468 603.608 925.193 443.798 M 351.216 1110.848 C 556.417 876.892 760.513 642.874 938.22 442.966 M 351.547 1111.25 C 567.07 863.097 784.819 615.978 938.865 443.864 M 359.542 1118.012 C 571.246 872.077 782.599 626.678 938.553 442.908 M 359.112 1118.029 C 484.206 973.944 610.206 827.799 938.247 443.182 M 351.224 1125.26 C 589.104 854.917 828.082 584.672 951.246 444.714 M 351.699 1125.689 C 496.458 961.33 642.532 794.618 951.459 443.907 M 359.347 1132.707 C 547.061 915.11 733.328 699.703 951.061 444.089 M 359.646 1132.673 C 540.987 924.34 720.474 716.132 951.645 444.018 M 351.808 1142.417 C 527.099 943.607 702.269 743.781 965.023 444.003 M 351.642 1141.906 C 481.198 991.483 610.864 843.963 964.503 444.139 M 358.746 1147.551 C 566.434 905.364 774.812 663.798 964.525 443.626 M 359.316 1147.992 C 598.516 871.275 835.345 595.159 964.744 444.131 M 352.401 1156.927 C 576.067 903.184 799.969 648.727 978.992 443.33 M 351.836 1156.628 C 540.995 940.784 730.622 724.658 978.099 443.737 M 360.145 1163.374 C 594.775 892.005 828.858 619.41 978.961 443.04 M 359.694 1162.999 C 537.406 957.495 712.632 753.68 978.358 443.787 M 353.074 1170.157 C 492.547 1013.888 632.377 854.81 991.999 443.285 M 352.449 1170.664 C 601.235 887.57 848.606 605.7 991.631 443.698 M 360.192 1176.569 C 613.851 884.084 864.153 592.688 992.189 443.548 M 360.461 1176.791 C 501.425 1015.927 640.656 853.661 991.784 443.472 M 366.058 1170.338 C 570.954 934.249 777.323 699.56 1004.184 444.066 M 366.487 1170.616 C 608.333 891.123 851.406 614.428 1004.85 443.551 M 374.09 1176.792 C 522.103 1002.747 672.884 827.43 1004.923 444.37 M 374.135 1176.657 C 558.616 964.183 742.559 750.206 1004.687 443.801 M 379.002 1171.63 C 628.677 886.733 876.654 604.265 1018.005 444.055 M 379.05 1171.138 C 532.583 994.458 688.114 817.815 1018.103 443.935 M 386.066 1178.028 C 632.162 888.344 880.02 600.75 1018.599 442.915 M 386.929 1177.14 C 529.946 1009.436 671.985 843.805 1018.123 443.299 M 392.739 1170.441 C 637.149 888.104 884.237 606.333 1031.102 442.746 M 392.295 1170.457 C 630.512 895.374 869.864 623.355 1031.59 443.126 M 399.927 1176.509 C 531.786 1025.978 664.358 873.948 1031.429 444.102 M 399.712 1177.152 C 650.253 882.591 902.16 590.052 1031.407 443.733 M 406.486 1170.691 C 622.12 921.486 841.618 672.703 1044.666 443.287 M 405.837 1170.837 C 548.646 1009.499 691.752 847.652 1044.14 443.578 M 413.064 1177.582 C 596.647 959.713 781.301 744.901 1043.58 443.702 M 413.212 1177.247 C 555.399 1011.061 698.682 843.678 1044.08 443.842 M 418.205 1170.352 C 636.016 924.112 852.033 676.325 1057.403 443.81 M 418.716 1170.72 C 595.005 969.999 773.496 766.963 1057.572 444.054 M 426.415 1177.443 C 622.324 951.341 814.189 727.474 1057.535 443.674 M 425.98 1177.353 C 663.788 900.7 900.061 624.674 1057.874 443.478 M 432.982 1170.381 C 637.536 937.666 839.82 707.098 1071.206 443.56 M 432.164 1170.455 C 610.821 967.262 787.221 766.582 1071.164 443.358 M 440.041 1176.874 C 671.496 910.793 903.539 642.18 1070.959 443.888 M 439.563 1176.907 C 656.879 920.452 876.238 665.652 1071.178 443.33 M 446.28 1171.249 C 622.334 973.588 796.518 776.536 1083.512 443.834 M 445.671 1170.434 C 693.689 886.827 943.629 602.247 1083.617 443.667 M 453.98 1177.771 C 611.548 997.646 766.971 815.539 1083.466 444.665 M 452.963 1176.988 C 638.739 963.468 823.36 748.959 1084.208 444.264 M 458.716 1170.676 C 624.198 985.532 788.229 798.498 1097.282 444.113 M 458.152 1171.222 C 614.401 990.472 772.95 810.267 1097.428 443.469 M 465.423 1177.679 C 703.939 900.105 943.723 620.591 1096.991 444.512 M 466.205 1177.249 C 593.983 1028.472 724.101 877.262 1096.971 443.457 M 471.621 1170.971 C 712.806 894.748 955.007 619.559 1110.654 443.394 M 472.314 1170.494 C 665.944 948.049 862.684 724.762 1110.948 443.692 M 480.278 1177.131 C 638.407 991.763 794.955 807.845 1110.247 443.05 M 479.112 1177.652 C 680.5 939.295 883.934 703.189 1110.931 443.723 M 484.712 1170.754 C 609.773 1023.356 738.858 877.154 1123.719 444.323 M 485.123 1170.766 C 664.077 963.328 844.024 758.8 1123.555 443.839 M 493.235 1177.774 C 744.971 885.5 997.301 593.133 1123.901 443.55 M 492.959 1177.402 C 699.782 939.561 903.739 702.721 1123.779 444.053 M 498.053 1170.696 C 720.937 920.694 942.729 668.946 1137.285 444.532 M 498.568 1170.729 C 702.891 938.195 909.666 703.483 1136.818 443.724 M 505.733 1176.902 C 648.106 1012.937 792.689 844.54 1137.734 444.27 M 506.049 1177.475 C 715.891 933.867 926.954 688.011 1136.997 443.747 M 512.427 1171.254 C 698.463 960.48 884.436 749.713 1150.542 444.367 M 511.231 1170.983 C 654.166 1006.96 799.693 841.905 1150.565 443.2 M 519.932 1177.999 C 767.473 892.726 1014.531 605.103 1149.913 442.98 M 518.878 1177.561 C 721.251 939.745 925.467 702.679 1150.325 443.747 M 525.4 1170.8 C 759.217 904.586 995.629 637.446 1163.685 443.869 M 524.752 1170.568 C 674.737 1000.504 824.275 830.151 1163.904 443.139 M 533.171 1177.66 C 787.103 881.091 1038.008 588.756 1164.409 443.547 M 532.598 1177.386 C 724.031 958.93 913.779 738.261 1163.584 443.612 M 538.742 1170.599 C 771.047 902.319 1006.393 635.062 1176.607 444.285 M 538.453 1170.346 C 681.934 1005.582 827.75 839.656 1177.113 443.744 M 545.397 1176.977 C 682.639 1013.338 823.939 850.965 1176.886 444.643 M 546.041 1176.9 C 749.751 938.053 954.139 700.377 1176.963 443.833 M 550.718 1171.523 C 765.897 928.7 981.984 683.713 1189.913 443.446 M 551.222 1171.306 C 764.779 926.799 980.065 681.744 1190.261 443.929 M 559.449 1178.245 C 733.272 970.716 910.897 765.661 1190.127 443.123 M 559.21 1177.779 C 744.069 964.104 928.742 749.488 1190.445 443.612 M 565.113 1171.029 C 802.82 899.633 1042.848 626.191 1204.195 443.499 M 564.943 1170.75 C 776.96 928.074 988.952 686.38 1203.275 443.446 M 572.485 1177.148 C 736.58 989.744 899.845 800.839 1203.698 443.359 M 572.7 1177.213 C 792.45 920.877 1012.191 665.453 1203.87 443.787 M 577.69 1170.888 C 733.431 994.793 888 818.137 1217.192 443.84 M 578.154 1170.817 C 725.743 1005.483 871.082 839.491 1216.309 443.824 M 586.446 1176.88 C 767.104 966.314 947.53 756.601 1215.914 443.772 M 586.163 1177.23 C 763.672 971.712 939.774 765.939 1216.501 443.775 M 590.965 1171.721 C 814.818 916.742 1041.563 658.742 1230.563 443.65 M 591.222 1170.624 C 773.157 966.945 954.86 760.264 1230.107 443.701 M 598.822 1177.888 C 828.595 911.841 1059.374 643.76 1230.608 444.169 M 598.677 1177.631 C 800.676 945.327 1000.8 712.551 1229.798 443.301 M 604.971 1170.735 C 847.063 895.285 1088.16 619.655 1242.747 443.226 M 604.303 1170.395 C 731.344 1021.953 860.946 874.232 1243.671 443.355 M 612.62 1177.204 C 825.422 931.44 1038.329 683.223 1243.595 443.872 M 612.312 1176.93 C 826.813 931.542 1038.185 685.096 1243.475 443.732 M 618.124 1171.051 C 771.901 994.725 927.848 818.509 1255.736 443.314 M 618.212 1170.398 C 829.941 933.139 1040.735 693.049 1256.228 444.038 M 626.031 1177.774 C 822.437 947.648 1018.154 719.835 1255.839 444.251 M 625.795 1176.882 C 782.762 991.406 941.963 806.645 1255.872 444.206 M 630.787 1171.441 C 844.341 927.474 1056.308 685.476 1269.036 444.446 M 630.79 1171.071 C 794.704 985.824 959.333 798.636 1269.2 444.115 M 637.595 1178.195 C 793.97 997.139 948.766 817.351 1269.025 443.264 M 638.078 1177.812 C 781.334 1008.011 926.256 839.69 1269.92 443.376 M 644.045 1170.461 C 827.916 961.638 1011.249 753.232 1283.738 443.469 M 644.468 1170.765 C 781.956 1015.063 920.768 856.757 1283.062 443.587 M 651.371 1176.848 C 879.666 914.776 1107.538 649.474 1283.218 443.181 M 651.906 1177.16 C 822.922 974.661 995.535 774.343 1282.811 443.132 M 657.362 1170.982 C 913.494 882.179 1169.332 592.004 1296.482 444.077 M 657.536 1170.272 C 840.495 961.478 1024.799 751.6 1296.117 444.233 M 664.997 1176.429 C 872.535 935.295 1080.948 694.511 1295.631 443.524 M 665.082 1177.203 C 813.055 1006.722 959.678 836.051 1295.958 443.938 M 671.209 1170.771 C 814.09 1005.674 956.568 843.692 1309.426 443.353 M 670.765 1170.602 C 919.62 884.324 1168.952 600.102 1309.661 444.141 M 678.721 1176.129 C 858.081 971.244 1034.863 765.228 1308.999 443.599 M 678.689 1177.24 C 808.286 1026.942 935.375 879.21 1308.969 444.171 M 684.152 1170.398 C 917.536 903.439 1153.975 634.679 1323.11 444.294 M 683.695 1170.494 C 870.055 959.624 1056.252 747.323 1322.445 443.839 M 690.882 1177.946 C 821.446 1027.792 949.89 877.937 1322.836 443.828 M 691.778 1177.499 C 893.522 942.978 1093.306 710.666 1322.909 443.846 M 697.074 1170.222 C 888.612 953.145 1079.414 735.739 1335.881 443.19 M 697.259 1170.601 C 950.138 879.499 1203.804 589.541 1336.503 443.276 M 705.339 1177.261 C 916.191 927.601 1130.176 678.678 1336.065 442.727 M 704.796 1176.917 C 931.79 912.694 1157.987 649.913 1336.524 443.199 M 710.839 1170.113 C 924.098 926.21 1137.858 683.736 1348.978 443.939 M 710.645 1170.012 C 941.535 908.737 1172.725 645.017 1348.637 444.128 M 717.931 1176.969 C 963.329 893.347 1205.923 610.622 1348.898 443.217 M 718.044 1176.873 C 937.56 920.241 1160.2 661.288 1348.929 444.195 M 723.463 1170.391 C 882.235 986.08 1042.699 803.78 1362.76 443.82 M 723.27 1171.192 C 903.662 967.223 1084.456 761.176 1362.642 443.584 M 731.248 1177.218 C 918.853 954.283 1108.112 734.517 1362.271 443.206 M 731.25 1177.319 C 964.812 911.028 1195.45 642.973 1362.23 443.511 M 736.88 1171.165 C 916.676 964.247 1097.702 758.722 1375.966 442.832 M 736.74 1170.518 C 928.037 955.179 1119.062 738.003 1375.77 443.673 M 743.8 1177.938 C 930.987 965.283 1115.404 750.433 1375.497 443.314 M 744.734 1176.92 C 942.978 947.522 1138.665 719.265 1375.994 443.46 M 749.803 1170.455 C 953.437 936.003 1158.457 702.845 1389.287 444.62 M 750.12 1170.805 C 1004.467 883.484 1255.775 597.386 1388.699 444.197 M 757.275 1176.977 C 905.425 1007.177 1050.986 838.862 1388.243 444.612 M 757.872 1176.777 C 976.14 925.799 1192.404 673.992 1388.409 444.134 M 762.898 1171.533 C 962.595 944.246 1161.173 718.012 1402.531 443.016 M 763.5 1171.043 C 1014.915 883.413 1267.759 595.924 1401.899 443.669 M 770.514 1177.43 C 925.071 999.576 1075.773 824.227 1402.49 443.158 M 771.068 1177.369 C 936.865 983.87 1102.68 790.374 1402.258 443.534 M 775.949 1171.055 C 938.905 985.968 1099.807 802.327 1415.487 444.166 M 776.763 1170.533 C 1015.112 897.328 1254.509 624.216 1415.696 443.843 M 784.675 1177.379 C 974.719 958.991 1164.115 739.182 1415.405 444.123 M 784.516 1177.084 C 982.911 949.459 1181.081 719.661 1415.381 443.7 M 790.319 1169.992 C 920.316 1017.407 1051.354 868.215 1428.297 443.466 M 790.448 1170.216 C 950.247 987.457 1108.435 806.962 1428.244 444.246 M 797.699 1177.621 C 949.172 998.1 1103.668 819.131 1427.702 443.527 M 797.468 1176.75 C 1037.726 899.556 1278.239 619.851 1428.243 443.647 M 802.926 1171.366 C 983.317 963.045 1166.015 755.056 1441.818 444.099 M 802.921 1171.207 C 1042.962 896.202 1282.478 623.454 1441.487 443.917 M 811.074 1177.801 C 1046.813 904.938 1278.986 634.651 1442.414 443.577 M 810.203 1177.37 C 1058.396 885.734 1309.219 595.324 1441.901 443.502 M 816.2 1171.583 C 980.823 981.333 1150.001 790.333 1455.289 443.959 M 816.338 1170.932 C 1044.787 913.107 1271.162 655.252 1455.628 443.533 M 823.81 1177.352 C 964.037 1011.202 1103.747 848.484 1454.557 442.796 M 823.589 1177.057 C 1033.742 932.629 1244.537 686.747 1454.87 443.429 M 829.359 1171.365 C 1063.057 908.436 1295.406 645.477 1468.303 444.595 M 829.515 1170.856 C 979.639 1001.407 1130.985 829.512 1467.893 443.947 M 838.096 1176.819 C 972.193 1024.404 1104.433 870.258 1467.495 443.353 M 837.555 1177.164 C 970.195 1019.826 1105.603 863.04 1468.29 443.769 M 842.622 1171.128 C 1017.403 973.511 1189.556 778.031 1481.165 444.136 M 842.946 1170.265 C 1040.684 944.29 1238.062 718.972 1481.704 443.924 M 850.728 1176.445 C 1097.742 890.737 1345.762 603.584 1482.112 444.007 M 850.508 1176.865 C 1035.68 958.714 1222.11 741.918 1481.493 443.573 M 855.904 1170.893 C 1060.828 934.132 1267.881 699.104 1494.167 443.43 M 855.898 1170.974 C 1054.533 944.751 1251.284 720.861 1494.736 443.864 M 862.997 1177.674 C 1044.356 970.119 1225.003 759.791 1494.473 443.027 M 863.626 1177.061 C 1042.421 967.179 1223.23 757.469 1495.27 443.532 M 869.84 1170.468 C 1075.664 935.592 1280.07 703.597 1507.292 444.528 M 869.827 1170.309 C 1005.594 1016.911 1138.979 864.865 1507.437 445.103 M 876.911 1176.94 C 1046.878 983.923 1214.598 788.057 1506.736 444.69 M 877.078 1177.367 C 1089.747 932.027 1300.334 686.657 1506.778 445.264 M 883.443 1170.772 C 1078.625 948.043 1272.957 727.831 1506.234 461.25 M 882.849 1170.435 C 1027.301 1003.677 1174.032 836.643 1506.637 460.466 M 891.26 1176.588 C 1115.964 917.638 1339.404 657.602 1506.771 460.243 M 890.893 1176.635 C 1033.464 1007.633 1177.622 839.172 1506.761 460.287 M 896.08 1171.579 C 1020.738 1026.184 1146.295 883.608 1507.709 475.145 M 895.702 1171.293 C 1046.016 997.179 1199.307 823.106 1506.864 475.033 M 903.583 1177.814 C 1063.663 990.559 1222.571 806.353 1507.068 475.057 M 903.722 1177.093 C 1037.362 1019.193 1172.603 862.307 1507.26 475.566 M 909.433 1170.843 C 1127.23 920.131 1344.869 671.427 1506.353 491.212 M 908.921 1170.734 C 1127.405 925.504 1344.256 677.839 1506.84 490.662 M 916.94 1176.8 C 1096.334 964.454 1279.009 752.254 1506.037 491.558 M 917.21 1177.28 C 1140.773 914.655 1365.054 653.01 1506.908 490.846 M 921.967 1170.837 C 1046.786 1026.068 1172.092 882.748 1507.772 505.484 M 922.893 1170.648 C 1112.757 951.298 1304.372 733.442 1507.335 505.566 M 929.569 1177.243 C 1101.305 973.857 1274.164 771.881 1506.662 506.404 M 930.46 1177.374 C 1063.107 1020.371 1198.022 864.398 1507.19 506.228 M 935.697 1171.082 C 1065.942 1022.023 1197.69 872.042 1507.301 520.662 M 935.835 1170.7 C 1130.336 949.041 1324.745 728.736 1506.721 521.153 M 943.261 1176.889 C 1106.71 988.643 1270.206 797.673 1506.451 521.32 M 942.798 1177.726 C 1139.049 952.119 1333.779 724.572 1506.388 521.808 M 948.557 1170.884 C 1138.777 953.407 1330.533 736.394 1506.449 536.878 M 948.954 1170.866 C 1079.677 1021.166 1213.559 869.787 1507.017 535.986 M 955.725 1178.069 C 1170.914 927.238 1386.182 676.097 1507.487 537.063 M 956.546 1177.401 C 1138.624 962.893 1322.549 749.153 1507.235 536.436 M 961.661 1170.665 C 1148.693 955.729 1336.949 743.45 1506.048 551.332 M 962.514 1170.362 C 1131.456 978.525 1300.175 786.822 1507.046 551.822 M 969.45 1177.83 C 1168.61 942.667 1369.817 710.391 1506.38 551.459 M 969.88 1177.102 C 1105.357 1021.172 1239.564 865.064 1506.865 552.157 M 974.875 1171.296 C 1121.3 1003.379 1270.513 834.354 1506.708 566.657 M 975.405 1170.979 C 1125.505 1001.393 1273.956 832.618 1506.876 566.776 M 982.477 1176.868 C 1116.123 1022.342 1250.005 864.9 1507.513 566.164 M 982.802 1177.707 C 1190.121 934.347 1397.743 691.861 1506.86 566.573 M 988.781 1170.233 C 1118.692 1024.87 1248.152 877.338 1506.762 582.553 M 988.71 1170.816 C 1154.271 982.561 1319.955 794.622 1506.579 582.155 M 996.763 1177.264 C 1157.789 985.249 1322.923 794.264 1506.594 583.106 M 995.908 1177.203 C 1156.202 988.127 1317.285 800.593 1506.404 582.078 M 1002.346 1170.849 C 1109.202 1045.59 1218 922.971 1507.519 597.752 M 1001.769 1170.414 C 1125.737 1031.344 1249.514 890.751 1507.476 597.222 M 1009.448 1177.415 C 1163.925 1000.146 1317.193 820.866 1507.106 596.84 M 1009.65 1176.819 C 1204.154 948.796 1400.34 720.788 1506.731 597.424 M 1015.539 1169.809 C 1204.259 953.594 1395.334 738.454 1506.412 612.855 M 1015.602 1170.535 C 1168.148 996.142 1322.873 820.219 1506.887 612.835 M 1023.479 1177.013 C 1124.508 1061.649 1224.639 946.037 1507.06 613.393 M 1022.961 1177.203 C 1150.962 1026.831 1278.482 878.846 1506.673 612.956 M 1028.026 1171.384 C 1141.413 1041.203 1258.616 910.782 1507.05 627.495 M 1028.399 1171.267 C 1138.983 1043.838 1249.816 918.104 1507.383 627.808 M 1036.696 1176.953 C 1158.303 1032.025 1284.511 887.04 1507.438 628.222 M 1035.943 1177.532 C 1220.823 959.043 1406.816 741.115 1507.113 627.774 M 1041.79 1170.032 C 1183.385 1012.724 1322.959 854.434 1507.567 643.171 M 1042.143 1170.613 C 1199.25 992.091 1359.157 810.87 1506.735 643.348 M 1049.257 1177.917 C 1228.504 966.808 1407.289 757.631 1506.948 643.452 M 1049.292 1177.295 C 1191.092 1010.268 1333.406 844.049 1506.535 643.374 M 1055.597 1170.923 C 1214.408 992.624 1373.545 812.348 1507.47 658.817 M 1055.474 1170.612 C 1160.192 1048.057 1267.114 927.097 1507.164 658.618 M 1062.902 1176.902 C 1217.212 998.42 1369.51 820.666 1507.275 658.64 M 1062.759 1176.821 C 1229.745 984.363 1395.734 791.055 1507.072 658.406 M 1068.561 1171.679 C 1168.73 1054.421 1269.791 939.405 1507.195 673.632 M 1068.055 1171.08 C 1219.785 997.447 1373.332 824.052 1506.89 673.577 M 1074.921 1177.754 C 1223.544 1005.518 1370.089 832.241 1506.227 673.613 M 1075.522 1177.411 C 1243.337 982.722 1409.968 787.886 1506.857 673.917 M 1082.115 1171.307 C 1180.59 1056.067 1280.271 941.931 1506.948 689.049 M 1081.745 1170.543 C 1234.084 999.307 1385.439 828.47 1506.983 688.537 M 1089.722 1177.704 C 1199.403 1051.216 1307.359 923.391 1507.788 688.827 M 1088.951 1177.479 C 1257.678 983.306 1424.69 788.15 1506.874 688.906 M 1094.474 1169.927 C 1224.846 1023.715 1355.049 876.256 1506.265 703.568 M 1095.059 1170.767 C 1251.539 993.344 1407.174 817.38 1506.915 704.606 M 1102.095 1176.699 C 1195.52 1070.971 1287.121 963.932 1507.266 705.008 M 1102.674 1177.078 C 1227.252 1030.982 1350.284 887.159 1506.505 703.969 M 1107.405 1171.312 C 1223.962 1042.761 1337.736 912.644 1507.653 719.522 M 1107.536 1171.29 C 1261.898 997.188 1414.994 824.119 1507.407 719.249 M 1115.181 1178.335 C 1204.517 1071.563 1294.502 966.464 1507.744 718.712 M 1114.942 1177.236 C 1211.405 1067.392 1306.308 956.305 1507.184 719.257 M 1121.788 1171.017 C 1200.765 1083.89 1278.361 994.357 1506.546 734.711 M 1120.909 1170.365 C 1267.826 1004.761 1413.665 839.899 1506.778 734.721 M 1128.037 1177.993 C 1246.509 1038.877 1363.044 901.403 1506.832 734.767 M 1128.6 1177.692 C 1275.588 1003.511 1423.145 830.072 1507.144 734.915 M 1135.291 1170.515 C 1279.809 1006.059 1425.218 842.712 1507.752 749.168 M 1134.368 1170.282 C 1217.136 1080.686 1297.773 989.33 1507 749.638 M 1142.904 1176.971 C 1278.524 1020.015 1414.372 861.566 1506.713 749.028 M 1142.352 1177.423 C 1277.693 1017.367 1414.751 857.268 1507.467 749.844 M 1147.527 1171.725 C 1230.181 1078.932 1311.203 986.509 1507.406 764.793 M 1147.327 1171.106 C 1288.899 1010.262 1431.23 850.341 1506.844 765.005 M 1154.371 1177.014 C 1281.725 1027.368 1409.143 878.052 1507.295 765.623 M 1155.123 1177.981 C 1247.118 1069.995 1339.381 961.593 1506.839 765.339 M 1160.43 1171.555 C 1281.746 1034.807 1402.633 899.765 1507.816 780.918 M 1160.594 1170.813 C 1247.426 1071.844 1335.45 972.919 1507.129 779.788 M 1168.947 1178.053 C 1270.664 1059.891 1370.956 941.704 1506.663 779.706 M 1168.835 1177.232 C 1291.447 1030.966 1415.802 884.798 1506.791 779.851 M 1174.316 1171.227 C 1252.94 1082.682 1330.402 993.186 1507.415 795.545 M 1174.034 1170.618 C 1298.705 1030.497 1423.023 889.472 1507.078 796.143 M 1181.922 1177.936 C 1263.404 1083.716 1342.871 989.918 1507.024 796.306 M 1182.064 1177.076 C 1260.909 1082.82 1340.283 989.622 1506.457 795.826 M 1187.263 1170.033 C 1265.061 1083.638 1342.338 995.865 1507.648 810.494 M 1187.574 1170.358 C 1312.981 1032.126 1436.476 893.204 1507.16 811.013 M 1196.041 1177.442 C 1296.319 1057.299 1399.15 936.952 1507.162 809.818 M 1195.046 1177.263 C 1285.927 1069.299 1376.654 962.154 1507.008 810.451 M 1200.377 1170.048 C 1312.987 1043.151 1424.298 918.854 1507.656 826.306 M 1200.811 1170.783 C 1312.536 1046.004 1423.889 921.72 1507.08 825.984 M 1208.841 1176.698 C 1306.028 1062.609 1402.69 947.872 1506.779 826.364 M 1208.528 1177.591 C 1313.215 1051.816 1419.718 927.416 1506.402 826.611 M 1213.695 1170.162 C 1293.797 1081.107 1372.222 992.927 1507.845 840.795 M 1213.63 1170.601 C 1277.152 1100.01 1340.419 1029.059 1506.781 840.865 M 1221.714 1178.023 C 1302.856 1085.292 1382.168 991.633 1506.936 841.065 M 1221.98 1177.492 C 1313.668 1069.844 1405 963.191 1507.231 840.806 M 1227.484 1170.073 C 1298.9 1090.201 1370.463 1007.706 1506.192 857.334 M 1227.032 1170.014 C 1310.899 1074.809 1396.84 978.696 1506.672 856.985 M 1234.611 1177.05 C 1307.747 1088.715 1382.986 999.076 1506.458 855.865 M 1234.763 1177.059 C 1321.551 1076.34 1407.019 975.806 1506.948 856.459 M 1240.503 1172.066 C 1325.186 1077.614 1409.331 983.339 1508.171 870.626 M 1240.558 1170.461 C 1304.138 1100.461 1366.29 1030.93 1507.193 871.683 M 1248.169 1177.65 C 1317.124 1095.943 1386.094 1016.11 1507.335 870.51 M 1247.736 1177.577 C 1330.297 1080.366 1413.227 982.319 1506.723 871.38 M 1253.845 1170.023 C 1322.007 1096.491 1386.973 1021.69 1506.208 887.693 M 1253.664 1170.348 C 1315.621 1101.188 1378.507 1031.497 1506.248 887.687 M 1261.016 1178.168 C 1321.925 1105.676 1384.428 1030.91 1507.214 886.347 M 1260.85 1177.277 C 1345.33 1074.503 1430.421 974.221 1506.627 887.656 M 1267.14 1169.834 C 1358.364 1068.997 1450.266 968.267 1507.035 901.938 M 1267.549 1170.605 C 1324.438 1107.169 1380.595 1043.378 1507.079 901.481 M 1274.776 1177.315 C 1345.537 1093.476 1415.156 1012.416 1506.659 902.376 M 1274.639 1176.859 C 1334.934 1105.001 1397.027 1032.149 1507.517 902.235 M 1280.68 1171.363 C 1326.785 1118.944 1375.654 1067.182 1505.951 917.332 M 1280.221 1171.142 C 1357.924 1086.509 1434.39 1001.166 1507.118 917.751 M 1286.861 1176.77 C 1359.242 1091.558 1430.356 1006.599 1506.717 918.774 M 1287.616 1177.307 C 1368.256 1081.438 1449.961 984.459 1506.538 917.688 M 1294.726 1169.947 C 1366.059 1087.473 1440.521 1007.635 1506.343 933.382 M 1293.157 1171.132 C 1362.134 1094.427 1432.554 1016.831 1506.525 932.153 M 1299.642 1176.966 C 1365.077 1101.21 1429.254 1026.845 1506.579 933.197 M 1300.466 1177.697 C 1345.95 1123.762 1393.542 1068.307 1507.734 932.723 M 1307.991 1169.248 C 1355.53 1116.637 1401.989 1062.929 1507.109 947.754 M 1306.326 1171.014 C 1350.107 1122.019 1393.328 1071.79 1507.436 947.491 M 1314.397 1175.933 C 1368.845 1113.557 1421.336 1051.786 1505.942 946.995 M 1315.137 1176.863 C 1356.391 1129.047 1396.771 1079.687 1506.16 947.957 M 1319.737 1171.325 C 1361.612 1128.5 1400.359 1085.713 1507.392 964.422 M 1320.256 1171.492 C 1374.852 1109.767 1430.2 1049.856 1506.498 962.621 M 1327.29 1178.173 C 1382.08 1111.813 1436.443 1046.489 1508.013 962.445 M 1326.833 1178.21 C 1395.677 1099.167 1463.445 1019.102 1506.897 962.686 M 1331.914 1170.66 C 1371.481 1131.512 1407.771 1092.788 1507.213 979.491 M 1333.284 1171.363 C 1375.208 1123.203 1417.389 1076.954 1506.928 978.218 M 1339.749 1177.891 C 1395.284 1109.615 1453.882 1038.996 1507.99 980.022 M 1340.421 1177.315 C 1405.353 1099.538 1468.652 1022.109 1507.153 978.126 M 1345.354 1170.907 C 1388.886 1123.813 1430.54 1076.876 1506.856 992.675 M 1346.726 1170.426 C 1383.643 1130.367 1421.161 1089.683 1507.508 993.827 M 1355.357 1178.398 C 1413.097 1104.26 1477.083 1028.777 1507.129 994.555 M 1354.907 1176.872 C 1412.478 1107.271 1471.601 1037.955 1506.944 992.786 M 1359.072 1169.499 C 1396.041 1129.882 1430.477 1088.908 1508.049 1007.942 M 1359.923 1169.693 C 1396.542 1129.985 1433.493 1089.48 1506.167 1009.093 M 1365.915 1176.733 C 1413.561 1123.38 1454.645 1071.313 1508.326 1007.727 M 1366.887 1176.067 C 1413.016 1123.12 1458.047 1069.969 1507.414 1008.577 M 1371.956 1172.619 C 1410.956 1130.398 1450.522 1087.061 1505.41 1024.059 M 1373.856 1171.564 C 1416.92 1120.044 1463.186 1071.405 1507.504 1024.377 M 1380.048 1178.555 C 1408.244 1146.472 1433.66 1114.232 1507.796 1022.787 M 1381.384 1176.854 C 1405.567 1144.81 1432.653 1111.789 1507.892 1024.943 M 1385.945 1170.373 C 1434.877 1118.817 1480.362 1067.097 1506.396 1040.129 M 1386.228 1170.948 C 1432.611 1119.635 1479.779 1070.214 1506.915 1039.886 M 1391.933 1177.415 C 1419.649 1141.72 1448.02 1108.186 1506.359 1040.868 M 1393.268 1177.922 C 1431.516 1131.765 1468.873 1087.685 1506.885 1038.836 M 1401.535 1171.678 C 1441.51 1123.781 1483.667 1077.796 1506.737 1052.82 M 1399.224 1171.09 C 1432.526 1132.021 1468.188 1094.926 1506.503 1055.165 M 1405.398 1177.893 C 1433.579 1147.801 1458.556 1114.313 1505.224 1056.168 M 1407.42 1176.206 C 1441.456 1134.102 1477.745 1090.98 1506.464 1054.441 M 1412.248 1170.703 C 1429.465 1150.792 1449.888 1130.897 1508.235 1071.12 M 1411.615 1171.769 C 1442.486 1139.489 1470.107 1109.677 1506.414 1069.217 M 1421.403 1177.721 C 1448.869 1144.105 1474.471 1108.807 1507.633 1071.238 M 1419.391 1177.205 C 1440.085 1153.961 1460.645 1129.315 1506.556 1069.481 M 1426.449 1172.481 C 1457.351 1139.746 1487.084 1110.108 1508.193 1086.122 M 1426.702 1170.941 C 1456.306 1138.749 1485.769 1108.514 1507.981 1084.466 M 1431.751 1177.495 C 1458.986 1144.502 1484.949 1112.301 1508.325 1086.735 M 1433.264 1176.592 C 1460.018 1143.604 1484.668 1109.894 1506.275 1085.099 M 1439.41 1169.433 C 1457.202 1150.854 1477.392 1126.229 1506.163 1101.065 M 1440.382 1171.261 C 1462.769 1147.179 1486.715 1122.372 1506.475 1100.791 M 1447.151 1177.197 C 1470.511 1147.068 1490.781 1117.73 1508.29 1099.458 M 1447.716 1176.742 C 1468.113 1149.949 1488.834 1122.622 1506.674 1099.892 M 1451.277 1171.104 C 1466.967 1153.651 1483.423 1139.535 1509.199 1117.293 M 1453.111 1171.823 C 1472.137 1151.112 1491.672 1132.031 1506.353 1115.492 M 1459.187 1177.936 C 1470.751 1164.234 1480.039 1151.749 1508.019 1116.315 M 1459.986 1178.468 C 1474.797 1158.492 1489.079 1139.042 1507.99 1115.878 M 1465.041 1169.9 C 1473.486 1160.394 1486.753 1152.826 1506.603 1132.294 M 1465.88 1169.894 C 1480.124 1157.315 1495.307 1143.056 1506.012 1131.321 M 1474.285 1175.68 C 1484.766 1157.545 1499.235 1140.117 1506.252 1132.356 M 1473.845 1176.755 C 1483.689 1161.949 1494.511 1148.205 1506.402 1130.53 M 1478.598 1169.618 C 1487.142 1163.146 1496.869 1152.442 1507.177 1145.662 M 1478.271 1171.443 C 1488.588 1163.818 1496.126 1156.057 1507.033 1146.453 M 1485.782 1177.788 C 1493.636 1169.9 1498.042 1158.878 1505.229 1144.737 M 1487.656 1177.29 C 1494.466 1165.25 1502.317 1153.749 1507.272 1146.739 M 1490.861 1171.165 C 1497.363 1167.3 1499.97 1166.904 1506.08 1161.178 M 1492.377 1170.897 C 1496.415 1168.309 1499.967 1165.408 1506.932 1160.631 M 1499.842 1176.843 C 1502.236 1174.519 1502.819 1167.829 1505.605 1162.618 M 1500.252 1178.134 C 1501.821 1174.187 1502.845 1169.412 1506.016 1160.93 " style="fill: none; stroke: rgb(245, 245, 245); stroke-width: 2px;" id="object-2"/><path d="M 356.014 443.496 C 640.586 447.696 925.983 447.617 1504.794 443.756 M 355.22 443.66 C 723.917 445.919 1092.231 445.566 1505.147 443.758 M 1505.736 443.083 C 1507.844 602.143 1507.217 762.037 1505.324 1173.574 M 1505.628 443.839 C 1504.749 599.641 1505.011 755.565 1505.288 1173.099 M 1505.924 1172.888 C 1174.644 1172.483 844.33 1173.735 355.296 1173.76 M 1505.656 1172.916 C 1086.686 1175.967 668.876 1176.107 355.081 1172.631 M 355.617 1173.312 C 353.62 953.578 352.339 735.277 355.725 444.286 M 355.524 1172.94 C 354.422 912.145 354.97 650.931 355.152 443.418 " style="fill: none; stroke: rgb(0, 0, 0); stroke-width: 1px;"/></g><g id="object-1" style="visibility: hidden;"><title>Logo</title><text style="fill: rgb(51, 51, 51); font-family: FreeSerif; font-size: 186.4px; white-space: pre;" x="577.521" y="304.408">NOM</text><path style="fill: rgb(51, 51, 51); stroke: rgb(51, 51, 51);" d="M 1062.41 150.74 C 1059.74 150.136 1045.67 158.772 1045.91 166.365 L 1049.23 334.815 L 1061.46 316.786 L 1062.41 150.74 Z"/><path style="stroke: rgb(51, 51, 51); fill: rgb(51, 51, 51);" d="M 1062.89 150.626 L 1190.31 150.116 L 1190.24 179.542 L 1160.88 180.042 L 1160.99 256.983 L 1131.29 256.604 L 1131.01 286.098 L 1110.41 285.725 L 1110.63 316.861 L 1063.4 316.857 L 1062.89 150.626 Z"/><path style="fill: rgb(216, 216, 216); stroke: rgb(0, 0, 0);" d="M 1105.44 196.643 L 1105.96 216.03 L 1087.13 215.978 L 1087.38 234.144 L 1105.7 234.521 L 1106.02 277.868 L 1124.92 277.544 L 1124.45 234.129 L 1142.1 234.129 L 1141.43 215.489 L 1124.24 215.624 L 1123.41 196.712 L 1105.44 196.643 Z"/><path style="stroke: rgb(51, 51, 51); fill: rgb(51, 51, 51);" d="M 1176.76 196.451 L 1177.36 270.977 L 1146.56 271.323 L 1146.57 297.535 L 1125.14 297.826 L 1125.59 316.574 L 1170.53 316.033 L 1170.35 290.852 L 1200.84 290.735 L 1199.8 196.855 L 1176.76 196.451 Z"/><rect x="1181.81" y="300.263" width="25.669" height="25.669" style="stroke: rgb(51, 51, 51); fill: rgb(51, 51, 51);"/><rect x="810.322" y="266.594" width="9.199" height="9.199" style="stroke: rgb(51, 51, 51); fill: rgb(51, 51, 51);" transform="matrix(1, 0, 0, 1, 407.508484, 50.566746)"/><rect x="1211.95" y="333.238" width="6.323" height="6.323" style="stroke: rgb(51, 51, 51); fill: rgb(51, 51, 51);"/><path style="stroke: rgb(51, 51, 51); stroke-linecap: square; fill: rgb(51, 51, 51);" d="M 1049.31 339.248 C 1049.31 341.634 1051.25 348.028 1059.37 348.167 L 1198.75 347.375 L 1198.64 338.117 L 1049.46 339.133"/></g></svg>