<?xml version="1.0" encoding="utf-8"?>
<svg xmlns="http://www.w3.org/2000/svg" viewBox="577.521 136.77 185.706 99.929" width="404.529px" height="131.254px" preserveAspectRatio="none">
  <text style="fill: rgb(51, 51, 51); font-family: FreeSerif; font-size: 45.2px; white-space: pre;" x="6.017" y="-3.385" transform="matrix(1, 0, 0, 1, -8.822384, -31.099306)"><tspan x="590.38" y="203.574" style="font-size: 45.2px; word-spacing: 0px;">YumYum<tspan x="590.3800048828125" dy="1em">​</tspan></tspan><tspan style="font-family: FreeSans; font-weight: 700; font-size: 45.2px; word-spacing: 0px;">Bible</tspan></text>
  <path style="fill: rgb(51, 51, 51); stroke: rgb(51, 51, 51);" d="M 712.316 184.347 C 711.559 184.202 707.565 186.261 707.633 188.073 L 708.575 228.243 L 712.047 223.944 L 712.316 184.347 Z"/>
  <path style="stroke: rgb(51, 51, 51); fill: rgb(51, 51, 51);" d="M 712.453 184.319 L 748.622 184.198 L 748.602 191.215 L 740.268 191.334 L 740.299 209.682 L 731.869 209.592 L 731.789 216.626 L 725.942 216.537 L 726.004 223.961 L 712.596 223.961 L 712.453 184.319 Z"/>
  <path style="fill: rgb(216, 216, 216); stroke: rgb(0, 0, 0);" d="M 724.531 195.292 L 724.679 199.917 L 719.334 199.905 L 719.404 204.237 L 724.605 204.326 L 724.695 214.663 L 730.06 214.586 L 729.926 204.232 L 734.937 204.232 L 734.746 199.787 L 729.867 199.82 L 729.632 195.31 L 724.531 195.292 Z"/>
  <path style="stroke: rgb(51, 51, 51); fill: rgb(51, 51, 51);" d="M 744.775 195.248 L 744.946 213.02 L 736.203 213.103 L 736.205 219.353 L 730.122 219.423 L 730.249 223.894 L 743.007 223.765 L 742.956 217.76 L 751.611 217.731 L 751.315 195.344 L 744.775 195.248 Z"/>
  <rect x="839.873" y="251.344" width="7.286" height="6.121" style="stroke: rgb(51, 51, 51); fill: rgb(51, 51, 51);" transform="matrix(1, 0, 0, 1, -93.662125, -31.338722)"/>
  <rect x="977.463" y="205.448" width="2.611" height="2.194" style="stroke: rgb(51, 51, 51); fill: rgb(51, 51, 51);" transform="matrix(1, 0, 0, 1, -221.027649, 18.585846)"/>
  <rect x="344.015" y="79.469" width="1.795" height="1.508" style="stroke: rgb(51, 51, 51); fill: rgb(51, 51, 51);" transform="matrix(1, 0, 0, 1, 410.750214, 148.399277)"/>
  <path style="stroke: rgb(51, 51, 51); stroke-linecap: square; fill: rgb(51, 51, 51);" d="M 708.598 229.301 C 708.598 229.87 709.149 231.395 711.454 231.427 L 751.017 231.239 L 750.986 229.031 L 708.64 229.273"/>
  <rect x="584.302" y="228.791" width="122.656" height="3.126" style="fill: rgb(51, 51, 51);"/>
</svg>