<?xml version="1.0" encoding="utf-8"?>
<svg xmlns="http://www.w3.org/2000/svg" viewBox="0 0 256.276 138.538">
  <text style="fill: rgb(51, 51, 51); font-family: FreeSerif; font-size: 45.2px; white-space: pre;" x="6.017" y="-3.385" transform="matrix(1.2781, 0, 0, 1.2781, -738.875427, -205.340714)"><tspan x="590.38" y="203.574" style="font-size: 45.2px; word-spacing: 0px;">Yum<tspan x="590.3800048828125" dy="1em">​</tspan>Yum<tspan x="590.3800048828125" dy="1em">​</tspan></tspan></text>
  <path style="fill: rgb(51, 51, 51); stroke: rgb(51, 51, 51);" d="M 150.687 18.626 C 149.171 18.333 141.169 22.458 141.302 26.086 L 143.192 106.567 L 150.149 97.957 L 150.687 18.626 Z"/>
  <path style="stroke: rgb(51, 51, 51); fill: rgb(51, 51, 51);" d="M 150.964 18.569 L 223.426 18.326 L 223.388 32.382 L 206.689 32.621 L 206.75 69.382 L 189.862 69.2 L 189.703 83.295 L 177.987 83.116 L 178.111 97.988 L 151.247 97.988 L 150.964 18.569 Z"/>
  <path style="fill: rgb(216, 216, 216); stroke: rgb(0, 0, 0);" d="M 175.159 40.553 L 175.457 49.817 L 164.75 49.796 L 164.888 58.475 L 175.309 58.652 L 175.491 79.363 L 186.239 79.206 L 185.969 58.464 L 196.009 58.464 L 195.625 49.558 L 185.851 49.624 L 185.381 40.587 L 175.159 40.553 Z"/>
  <path style="stroke: rgb(51, 51, 51); fill: rgb(51, 51, 51);" d="M 215.719 40.462 L 216.061 76.068 L 198.543 76.236 L 198.548 88.758 L 186.363 88.897 L 186.615 97.857 L 212.177 97.598 L 212.073 85.566 L 229.412 85.507 L 228.822 40.655 L 215.719 40.462 Z"/>
  <rect x="218.605" y="90.065" width="14.596" height="12.264" style="stroke: rgb(51, 51, 51); fill: rgb(51, 51, 51);"/>
  <rect x="1958.34" y="411.614" width="5.232" height="4.395" style="stroke: rgb(51, 51, 51); fill: rgb(51, 51, 51);" transform="matrix(1, 0, 0, 1, -1719.252441, -313.47702)"/>
  <rect x="285.373" y="148.027" width="3.596" height="3.02" style="stroke: rgb(51, 51, 51); fill: rgb(51, 51, 51);" transform="matrix(1, 0, 0, 1, -49.637684, -42.210835)"/>
  <path style="stroke: rgb(51, 51, 51); stroke-linecap: square; fill: rgb(51, 51, 51);" d="M 143.238 108.686 C 143.238 109.828 144.341 112.884 148.96 112.948 L 228.225 112.571 L 228.159 108.146 L 143.324 108.634"/>
</svg>