<?xml version="1.0" encoding="utf-8"?>
<svg xmlns="http://www.w3.org/2000/svg" viewBox="577.521 136.408 649.5085 211.759" width="649.509px" height="211.759px" preserveAspectRatio="none"><g id="object-1" transform="matrix(0.9999999999999999, 0, 0, 0.9999999999999999, -5.684341886080802e-14, -5.684341886080802e-14)"><title>Logo</title><text style="fill: rgb(51, 51, 51); font-family: FreeSerif; font-size: 186.4px; white-space: pre;" x="577.521" y="304.408">NOM</text><path style="fill: rgb(51, 51, 51); stroke: rgb(51, 51, 51);" d="M 1062.41 150.74 C 1059.74 150.136 1045.67 158.772 1045.91 166.365 L 1049.23 334.815 L 1061.46 316.786 L 1062.41 150.74 Z"/><path style="stroke: rgb(51, 51, 51); fill: rgb(51, 51, 51);" d="M 1062.89 150.626 L 1190.31 150.116 L 1190.24 179.542 L 1160.88 180.042 L 1160.99 256.983 L 1131.29 256.604 L 1131.01 286.098 L 1110.41 285.725 L 1110.63 316.861 L 1063.4 316.857 L 1062.89 150.626 Z"/><path style="fill: rgb(216, 216, 216); stroke: rgb(0, 0, 0);" d="M 1105.44 196.643 L 1105.96 216.03 L 1087.13 215.978 L 1087.38 234.144 L 1105.7 234.521 L 1106.02 277.868 L 1124.92 277.544 L 1124.45 234.129 L 1142.1 234.129 L 1141.43 215.489 L 1124.24 215.624 L 1123.41 196.712 L 1105.44 196.643 Z"/><path style="stroke: rgb(51, 51, 51); fill: rgb(51, 51, 51);" d="M 1176.76 196.451 L 1177.36 270.977 L 1146.56 271.323 L 1146.57 297.535 L 1125.14 297.826 L 1125.59 316.574 L 1170.53 316.033 L 1170.35 290.852 L 1200.84 290.735 L 1199.8 196.855 L 1176.76 196.451 Z"/><rect x="1181.81" y="300.263" width="25.669" height="25.669" style="stroke: rgb(51, 51, 51); fill: rgb(51, 51, 51);"/><rect x="810.322" y="266.594" width="9.199" height="9.199" style="stroke: rgb(51, 51, 51); fill: rgb(51, 51, 51);" transform="matrix(1, 0, 0, 1, 407.508484, 50.566746)"/><rect x="1211.95" y="333.238" width="6.323" height="6.323" style="stroke: rgb(51, 51, 51); fill: rgb(51, 51, 51);"/><path style="stroke: rgb(51, 51, 51); stroke-linecap: square; fill: rgb(51, 51, 51);" d="M 1049.31 339.248 C 1049.31 341.634 1051.25 348.028 1059.37 348.167 L 1198.75 347.375 L 1198.64 338.117 L 1049.46 339.133"/></g></svg>