<?xml version="1.0" encoding="utf-8"?>
<svg xmlns="http://www.w3.org/2000/svg" viewBox="577.521 136.77 110.068 68.658" width="404.529px" height="131.254px" preserveAspectRatio="none">
  <text style="fill: rgb(51, 51, 51); font-family: FreeSerif; font-size: 45.2px; white-space: pre;" x="6.017" y="-3.385" transform="matrix(0.563305, 0, 0, 0.563305, 249.261017, 48.612347)"><tspan x="590.38" y="203.574" style="font-size: 45.2px; word-spacing: 0px;">YumYum<tspan x="590.3800048828125" dy="1em">​</tspan></tspan><tspan style="font-family: FreeSans; font-weight: 700; font-size: 45.2px; word-spacing: 0px;">Bible</tspan></text>
  <path style="fill: rgb(51, 51, 51); stroke: rgb(51, 51, 51);" d="M 655.481 169.975 C 655.055 169.893 652.805 171.053 652.843 172.073 L 653.374 194.701 L 655.33 192.28 L 655.481 169.975 Z"/>
  <path style="stroke: rgb(51, 51, 51); fill: rgb(51, 51, 51);" d="M 655.559 169.959 L 675.933 169.891 L 675.922 173.843 L 671.227 173.91 L 671.244 184.246 L 666.496 184.195 L 666.451 188.158 L 663.157 188.107 L 663.192 192.289 L 655.639 192.289 L 655.559 169.959 Z"/>
  <path style="fill: rgb(216, 216, 216); stroke: rgb(0, 0, 0);" d="M 662.362 176.14 L 662.446 178.745 L 659.435 178.739 L 659.474 181.179 L 662.404 181.229 L 662.455 187.052 L 665.477 187.008 L 665.401 181.176 L 668.224 181.176 L 668.116 178.672 L 665.368 178.691 L 665.236 176.15 L 662.362 176.14 Z"/>
  <path style="stroke: rgb(51, 51, 51); fill: rgb(51, 51, 51);" d="M 673.766 176.115 L 673.862 186.126 L 668.937 186.173 L 668.938 189.694 L 665.512 189.733 L 665.583 192.252 L 672.77 192.179 L 672.741 188.796 L 677.616 188.78 L 677.45 176.169 L 673.766 176.115 Z"/>
  <rect x="473.104" y="141.583" width="4.104" height="3.448" style="stroke: rgb(51, 51, 51); fill: rgb(51, 51, 51);" transform="matrix(1, 0, 0, 1, 201.470383, 48.477482)"/>
  <rect x="550.61" y="115.73" width="1.471" height="1.236" style="stroke: rgb(51, 51, 51); fill: rgb(51, 51, 51);" transform="matrix(1, 0, 0, 1, 129.724762, 76.600227)"/>
  <rect x="193.785" y="44.765" width="1.011" height="0.849" style="stroke: rgb(51, 51, 51); fill: rgb(51, 51, 51);" transform="matrix(1, 0, 0, 1, 485.608246, 149.724747)"/>
  <path style="stroke: rgb(51, 51, 51); stroke-linecap: square; fill: rgb(51, 51, 51);" d="M 653.387 195.297 C 653.387 195.618 653.697 196.477 654.996 196.495 L 677.282 196.389 L 677.264 195.145 L 653.411 195.282"/>
  <rect x="583.371" y="195.01" width="69.093" height="1.761" style="fill: rgb(51, 51, 51);"/>
</svg>